# xmcd
#
# Track frame offsets: 
#        150
#        17150
#        33817
#        51407
#        64475
#        82427
#        94285
#        110570
#        124695
#        146337
#        159890
#        180855
#        195550
#        216247
#        234420
#
# Disc length: 3383 seconds
#
# Revision: 0
# Processed by: cddbd v1.4PL0 Copyright (c) Steve Scherf et al.
# Submitted via: ExactAudioCopy v0.90b4
#
DISCID=cf0d350f
DTITLE=Billy Ray Cyrus - Time Flies
DYEAR=1900
DGENRE=Country
TTITLE0=What Else Is There
TTITLE1=Bread Alone
TTITLE2=The Way It Is
TTITLE3=She Don't Love Me (She Don't Hate Me)
TTITLE4=Time Flies
TTITLE5=I Luv Ya
TTITLE6=I Still Believe
TTITLE7=Without You
TTITLE8=Hard To Leave
TTITLE9=Nobody
TTITLE10=Tell Me
TTITLE11=Close To Gone
TTITLE12=Stand Still
TTITLE13=Back To Memphis
TTITLE14=Some Gave All (Acoustic Version)
EXTD=
EXTT0=
EXTT1=
EXTT2=
EXTT3=
EXTT4=
EXTT5=
EXTT6=
EXTT7=
EXTT8=
EXTT9=
EXTT10=
EXTT11=
EXTT12=
EXTT13=
EXTT14=
PLAYORDER=
